<?xml version="1.0" encoding="UTF-8" standalone="no"?>
<svg
   xmlns:dc="http://purl.org/dc/elements/1.1/"
   xmlns:cc="http://creativecommons.org/ns#"
   xmlns:rdf="http://www.w3.org/1999/02/22-rdf-syntax-ns#"
   xmlns:svg="http://www.w3.org/2000/svg"
   xmlns="http://www.w3.org/2000/svg"
   xmlns:sodipodi="http://sodipodi.sourceforge.net/DTD/sodipodi-0.dtd"
   xmlns:inkscape="http://www.inkscape.org/namespaces/inkscape"
   height="16"
   viewBox="0 0 16 16"
   width="16"
   version="1.1"
   id="svg4"
   sodipodi:docname="Button.svg"
   inkscape:version="0.92.5 (2060ec1f9f, 2020-04-08)">
  <metadata
     id="metadata10">
    <rdf:RDF>
      <cc:Work
         rdf:about="">
        <dc:format>image/svg+xml</dc:format>
        <dc:type
           rdf:resource="http://purl.org/dc/dcmitype/StillImage" />
        <dc:title></dc:title>
      </cc:Work>
    </rdf:RDF>
  </metadata>
  <defs
     id="defs8" />
  <sodipodi:namedview
     pagecolor="#ffffff"
     bordercolor="#666666"
     borderopacity="1"
     objecttolerance="10"
     gridtolerance="10"
     guidetolerance="10"
     inkscape:pageopacity="0"
     inkscape:pageshadow="2"
     inkscape:window-width="1920"
     inkscape:window-height="1029"
     id="namedview6"
     showgrid="false"
     inkscape:zoom="14.75"
     inkscape:cx="8"
     inkscape:cy="8"
     inkscape:window-x="0"
     inkscape:window-y="0"
     inkscape:window-maximized="1"
     inkscape:current-layer="svg4" />
  <path
     d="m7 1v3.1328l-1.4453-.96484-1.1094 1.6641 3 2a1.0001 1.0001 0 0 0 1.1094 0l3-2-1.1094-1.6641-1.4453.96484v-3.1328zm-1.5 8c-.831 0-1.5.669-1.5 1.5v1.5h-2v2h12v-2h-2v-1.5c0-.831-.669-1.5-1.5-1.5z"
     fill="#8eef97"
     id="path2" />
  <path
     inkscape:connector-curvature="0"
     style="fill:#8eef97;fill-opacity:0.64321607"
     d="m 9.5547,0.3007401 v 3.1328 L 8.1094,2.4687001 7,4.1328 l 3,2 a 1.0001,1.0001 0 0 0 1.1094,0 l 3,-2 L 13,2.4687001 l -1.4453,0.96484 v -3.1328 z m -1.5,7.9999999 c -0.831,0 -1.5,0.669 -1.5,1.5 v 1.5 h -2 v 2 h 12 v -2 h -2 v -1.5 c 0,-0.831 -0.669,-1.5 -1.5,-1.5 z"
     id="path2-3" />
  <path
     inkscape:connector-curvature="0"
     style="fill:#8eef97;fill-opacity:0.25628141"
     d="m 13,-0.6640999 v 3.1328 l -1.4453,-0.96484 -1.1094,1.6640999 3,2.0000002 a 1.0001,1.0001 0 0 0 1.1094,0 l 3,-2.0000002 L 16.4453,1.5038601 15,2.4687001 v -3.1328 z m -1.5,8.0000001 c -0.831,0 -1.5,0.669 -1.5,1.5 V 10.3359 H 8 v 2 h 12 v -2 H 18 V 8.8359002 c 0,-0.831 -0.669,-1.5 -1.5,-1.5 z"
     id="path2-3-6" />
</svg>
